<svg xmlns="http://www.w3.org/2000/svg" version="1.1" xmlns:xlink="http://www.w3.org/1999/xlink" xmlns:svgjs="http://svgjs.dev/svgjs" width="1000" height="623" viewBox="0 0 1000 623"><g transform="matrix(1,0,0,1,-0.6060606060606233,0.2522267206477409)"><svg viewBox="0 0 396 247" data-background-color="#ffffff" preserveAspectRatio="xMidYMid meet" height="623" width="1000" xmlns="http://www.w3.org/2000/svg" xmlns:xlink="http://www.w3.org/1999/xlink"><g id="tight-bounds" transform="matrix(1,0,0,1,0.2400000000000091,-0.09999999999999432)"><svg viewBox="0 0 395.52 247.2" height="247.2" width="395.52"><g><svg></svg></g><g><svg viewBox="0 0 395.52 247.2" height="247.2" width="395.52"><g transform="matrix(1,0,0,1,75.54432,81.31442390645559)"><svg viewBox="0 0 244.43135999999998 84.57115218708881" height="84.57115218708881" width="244.43135999999998"><g><svg viewBox="0 0 244.43135999999998 84.57115218708881" height="84.57115218708881" width="244.43135999999998"><g><svg viewBox="0 0 244.43135999999998 84.57115218708881" height="84.57115218708881" width="244.43135999999998"><g><svg viewBox="0 0 244.43135999999998 84.57115218708881" height="84.57115218708881" width="244.43135999999998"><g id="textblocktransform"><svg viewBox="0 0 244.43135999999998 84.57115218708881" height="84.57115218708881" width="244.43135999999998" id="textblock"><g><svg viewBox="0 0 244.43135999999998 52.438173953701565" height="52.438173953701565" width="244.43135999999998"><g transform="matrix(1,0,0,1,0,0)"><svg width="244.43135999999998" viewBox="2 -34.5 218.1300048828125 46.79999923706055" height="52.438173953701565" data-palette-color="#ff908b"><path d="M19.1-18.2Q23.45-17.6 25.75-15.35 28.05-13.1 28.05-9.45L28.05-9.45Q28.05-5.45 25.28-2.73 22.5 0 16.75 0L16.75 0 2 0 2-0.4 6.1-0.8 6.1-33.7 2-34.1 2-34.5 14.45-34.5Q20.35-34.5 23.45-32.4 26.55-30.3 26.55-26.3L26.55-26.3Q26.55-23.1 24.6-21 22.65-18.9 19.1-18.4L19.1-18.4 19.1-18.2ZM14.3-33.9L9.95-33.9 9.95-18.55 15.75-18.55Q19.1-18.55 20.58-20.5 22.05-22.45 22.05-26.3L22.05-26.3Q22.05-33.9 14.3-33.9L14.3-33.9ZM15.55-0.6Q23.3-0.6 23.3-9.3L23.3-9.3Q23.3-13.85 21.35-15.9 19.4-17.95 15.55-17.95L15.55-17.95 9.95-17.95 9.95-0.6 15.55-0.6ZM42.3-21.7Q45.2-21.7 47.45-20.3 49.7-18.9 50.95-16.38 52.2-13.85 52.2-10.6L52.2-10.6Q52.2-7.35 50.95-4.83 49.7-2.3 47.45-0.9 45.2 0.5 42.3 0.5L42.3 0.5Q39.4 0.5 37.15-0.9 34.9-2.3 33.65-4.83 32.4-7.35 32.4-10.6L32.4-10.6Q32.4-13.85 33.65-16.38 34.9-18.9 37.15-20.3 39.4-21.7 42.3-21.7L42.3-21.7ZM36.1-10.6Q36.1-5.6 37.75-2.8 39.4 0 42.3 0L42.3 0Q45.2 0 46.85-2.8 48.5-5.6 48.5-10.6L48.5-10.6Q48.5-15.6 46.85-18.4 45.2-21.2 42.3-21.2L42.3-21.2Q39.4-21.2 37.75-18.4 36.1-15.6 36.1-10.6L36.1-10.6ZM73.5-0.8L76.5-0.4 76.5 0 67.19 0 67.19-0.4 70.25-0.8 70.25-13.55Q70.25-15.5 70.14-16.45 70.05-17.4 69.75-18.05L69.75-18.05Q69.34-18.9 68.42-19.38 67.5-19.85 66.3-19.85L66.3-19.85Q63.75-19.85 61.75-17.7L61.75-17.7 61.75-0.8 64.8-0.4 64.8 0 55.45 0 55.45-0.4 58.49-0.8 58.49-18.05 55.55-19.15 55.55-19.5 61.2-21.45 61.59-21.45 61.59-18.3Q64.8-21.7 68.3-21.7L68.3-21.7Q69.84-21.7 71.12-21.03 72.39-20.35 72.94-19.25L72.94-19.25Q73.3-18.6 73.4-17.48 73.5-16.35 73.5-13.55L73.5-13.55 73.5-0.8ZM116.34-33.85Q117.14-33.8 117.49-33.55 117.84-33.3 117.84-32.8L117.84-32.8Q117.84-32.35 117.64-31.85L117.64-31.85 107.49-4.75 107.29-4.75 96.69-33.7 101.04-34.1 101.04-34.5 88.54-34.5 88.54-34.1 92.64-33.7 105.29 0.8 106.19 0.8 118.44-31.85Q118.84-33 119.37-33.38 119.89-33.75 121.14-33.85L121.14-33.85 123.94-34.1 123.94-34.5 113.29-34.5 113.29-34.1 116.34-33.85ZM128.59-21.7Q131.49-21.7 133.74-20.3 135.99-18.9 137.24-16.38 138.49-13.85 138.49-10.6L138.49-10.6Q138.49-7.35 137.24-4.83 135.99-2.3 133.74-0.9 131.49 0.5 128.59 0.5L128.59 0.5Q125.69 0.5 123.44-0.9 121.19-2.3 119.94-4.83 118.69-7.35 118.69-10.6L118.69-10.6Q118.69-13.85 119.94-16.38 121.19-18.9 123.44-20.3 125.69-21.7 128.59-21.7L128.59-21.7ZM122.39-10.6Q122.39-5.6 124.04-2.8 125.69 0 128.59 0L128.59 0Q131.49 0 133.14-2.8 134.79-5.6 134.79-10.6L134.79-10.6Q134.79-15.6 133.14-18.4 131.49-21.2 128.59-21.2L128.59-21.2Q125.69-21.2 124.04-18.4 122.39-15.6 122.39-10.6L122.39-10.6ZM151.84-3.65L146.54-18.65Q146.19-19.65 146.19-19.95L146.19-19.95Q146.19-20.35 146.71-20.53 147.24-20.7 149.04-20.8L149.04-20.8 149.04-21.2 139.39-21.2 139.39-20.8Q141.09-20.7 141.71-20.38 142.34-20.05 142.74-19.1L142.74-19.1 150.44 0.9 148.49 6.85Q147.84 8.8 147.29 9.63 146.74 10.45 146.09 10.45L146.09 10.45Q145.64 10.45 145.41 10.13 145.19 9.8 144.99 9.1L144.99 9.1Q144.74 8.2 144.34 7.7 143.94 7.2 142.99 7.2L142.99 7.2Q141.99 7.2 141.41 7.8 140.84 8.4 140.84 9.4L140.84 9.4Q140.84 10.65 141.79 11.48 142.74 12.3 144.14 12.3L144.14 12.3Q145.84 12.3 147.14 10.85L147.14 10.85Q148.19 9.85 149.04 7.2L149.04 7.2 157.39-17.35Q157.94-19.05 158.94-19.75 159.94-20.45 162.34-20.8L162.34-20.8 162.34-21.2 153.39-21.2 153.39-20.8Q155.39-20.5 156.14-20.13 156.89-19.75 156.89-18.95L156.89-18.95Q156.89-18.4 156.59-17.4L156.59-17.4 152.04-3.65 151.84-3.65ZM167.58 0.35Q165.68 0.35 164.46-0.98 163.23-2.3 163.23-4.4L163.23-4.4Q163.23-6.9 165.51-8.4 167.78-9.9 173.23-11L173.23-11 173.23-15.55Q173.23-18.45 172.58-19.58 171.93-20.7 170.33-20.7L170.33-20.7Q168.78-20.7 167.83-19.88 166.88-19.05 166.88-17.65L166.88-17.65 166.93-16.3Q166.93-15.05 166.46-14.33 165.98-13.6 165.13-13.6L165.13-13.6Q164.38-13.6 163.91-14.1 163.43-14.6 163.43-15.4L163.43-15.4Q163.43-16.6 164.61-18.03 165.78-19.45 167.63-20.4L167.63-20.4Q169.88-21.65 172.28-21.65L172.28-21.65Q173.68-21.65 174.66-21.1 175.63-20.55 176.08-19.55L176.08-19.55Q176.33-18.9 176.41-17.95 176.48-17 176.48-14.3L176.48-14.3 176.48-4.75Q176.48-2.95 176.83-2.27 177.18-1.6 178.08-1.6L178.08-1.6Q179.43-1.6 180.08-2.55L180.08-2.55 180.28-2.45Q179.68-1.2 178.68-0.53 177.68 0.15 176.53 0.15L176.53 0.15Q175.23 0.15 174.38-0.63 173.53-1.4 173.43-2.7L173.43-2.7 173.28-2.75Q172.13-1.3 170.63-0.48 169.13 0.35 167.58 0.35L167.58 0.35ZM169.73-1.55Q170.78-1.55 171.71-2.02 172.63-2.5 173.23-3.4L173.23-3.4 173.23-10.45Q170.63-9.8 169.21-9.15 167.78-8.5 167.18-7.6 166.58-6.7 166.58-5.35L166.58-5.35Q166.58-3.6 167.43-2.58 168.28-1.55 169.73-1.55L169.73-1.55ZM197.53-22.05Q196.53-22.05 196.08-20L196.08-20Q197.38-19 198.08-17.57 198.78-16.15 198.78-14.4L198.78-14.4Q198.78-11.7 197.16-9.78 195.53-7.85 192.83-7.3L192.83-7.3Q192.23-7.15 191.63-7.15L191.63-7.15Q189.03-6.7 187.61-5.9 186.18-5.1 186.18-4.1L186.18-4.1Q186.18-3.4 186.63-2.93 187.08-2.45 188.33-2.02 189.58-1.6 192.08-1.15L192.08-1.15Q196.33-0.35 198.13 1.1 199.93 2.55 199.93 5.2L199.93 5.2Q199.93 7.2 198.63 8.83 197.33 10.45 195.03 11.38 192.73 12.3 189.88 12.3L189.88 12.3Q185.73 12.3 183.46 10.83 181.18 9.35 181.18 6.7L181.18 6.7Q181.18 4.85 182.66 3.28 184.13 1.7 186.63 0.9L186.63 0.9Q184.88 0.2 184.11-0.68 183.33-1.55 183.33-2.75L183.33-2.75Q183.33-4.15 185.01-5.3 186.68-6.45 189.83-7.15L189.83-7.15Q186.73-7.45 184.81-9.45 182.88-11.45 182.88-14.45L182.88-14.45Q182.88-17.65 185.11-19.68 187.33-21.7 190.83-21.7L190.83-21.7Q193.63-21.7 195.68-20.35L195.68-20.35Q196.93-24.65 199.53-24.65L199.53-24.65Q200.48-24.65 201.03-24.13 201.58-23.6 201.58-22.75L201.58-22.75Q201.58-22.05 201.08-21.55 200.58-21.05 199.88-21.05L199.88-21.05Q199.28-21.05 198.63-21.6L198.63-21.6Q198.53-21.65 198.21-21.85 197.88-22.05 197.53-22.05L197.53-22.05ZM190.83-7.6Q192.73-7.6 193.91-9.5 195.08-11.4 195.08-14.4L195.08-14.4Q195.08-17.4 193.91-19.3 192.73-21.2 190.83-21.2L190.83-21.2Q188.93-21.2 187.76-19.3 186.58-17.4 186.58-14.4L186.58-14.4Q186.58-11.4 187.76-9.5 188.93-7.6 190.83-7.6L190.83-7.6ZM197.03 6.7Q197.03 4.8 195.68 3.78 194.33 2.75 190.58 2L190.58 2Q188.48 1.65 187.13 1.1L187.13 1.1Q183.58 2.35 183.58 6.25L183.58 6.25Q183.58 8.9 185.31 10.35 187.03 11.8 190.18 11.8L190.18 11.8Q193.33 11.8 195.18 10.43 197.03 9.05 197.03 6.7L197.03 6.7ZM219.28-5.1L219.73-5.7 219.93-5.6 219.73-5.05Q218.73-2.4 216.75-0.95 214.78 0.5 212.03 0.5L212.03 0.5Q209.33 0.5 207.23-0.9 205.13-2.3 203.95-4.8 202.78-7.3 202.78-10.55L202.78-10.55Q202.78-13.8 204.03-16.35 205.28-18.9 207.58-20.3 209.88-21.7 212.83-21.7L212.83-21.7Q216.33-21.7 218.2-19.63 220.08-17.55 220.13-13.6L220.13-13.6 219.83-13.35 206.33-13.35Q206.23-12.05 206.23-11.3L206.23-11.3Q206.23-6.75 208.08-4.38 209.93-2 213.23-2L213.23-2Q214.93-2 216.5-2.78 218.08-3.55 219.28-5.1L219.28-5.1ZM212.28-21.15Q209.93-21.15 208.38-19.2 206.83-17.25 206.38-13.9L206.38-13.9 216.08-14.25Q216.23-14.85 216.23-16.25L216.23-16.25Q216.23-18.95 215.2-20.05 214.18-21.15 212.28-21.15L212.28-21.15Z" opacity="1" transform="matrix(1,0,0,1,0,0)" fill="#ff908b" class="undefined-text-0" data-fill-palette-color="primary" id="text-0"></path></svg></g></svg></g><g transform="matrix(1,0,0,1,0,64.81756830799561)"><svg viewBox="0 0 244.43135999999998 19.753583879093192" height="19.753583879093192" width="244.43135999999998"><g transform="matrix(1,0,0,1,0,0)"><svg width="244.43135999999998" viewBox="1.7999999523162842 -38.150001525878906 476.4000244140625 38.5" height="19.753583879093192" data-palette-color="#ff908b"><path d="M12.05 0.35L12.05 0.35Q8.85 0.35 6.55-0.63 4.25-1.6 3.03-2.88 1.8-4.15 1.8-5.05L1.8-5.05Q1.8-5.45 2.02-5.9 2.25-6.35 2.6-6.63 2.95-6.9 3.3-6.9L3.3-6.9Q3.8-6.9 4.33-6.28 4.85-5.65 5.73-4.83 6.6-4 8.05-3.38 9.5-2.75 11.85-2.75L11.85-2.75Q14.2-2.75 15.88-3.53 17.55-4.3 18.43-5.83 19.3-7.35 19.3-9.65L19.3-9.65Q19.3-12.05 18.4-13.53 17.5-15 16.03-15.93 14.55-16.85 12.8-17.53 11.05-18.2 9.28-18.88 7.5-19.55 6.03-20.58 4.55-21.6 3.63-23.28 2.7-24.95 2.7-27.55L2.7-27.55Q2.7-30.3 3.7-32.05 4.7-33.8 6.28-34.8 7.85-35.8 9.7-36.23 11.55-36.65 13.3-36.65L13.3-36.65Q14.7-36.65 16.18-36.43 17.65-36.2 18.9-35.8 20.15-35.4 20.93-34.85 21.7-34.3 21.7-33.6L21.7-33.6Q21.7-33.25 21.53-32.83 21.35-32.4 21.05-32.08 20.75-31.75 20.25-31.75L20.25-31.75Q19.8-31.75 19-32.23 18.2-32.7 16.82-33.18 15.45-33.65 13.25-33.65L13.25-33.65Q11.45-33.65 9.78-33.13 8.1-32.6 7.05-31.35 6-30.1 6-27.85L6-27.85Q6-25.85 6.93-24.63 7.85-23.4 9.33-22.65 10.8-21.9 12.55-21.28 14.3-20.65 16.07-19.88 17.85-19.1 19.33-17.93 20.8-16.75 21.7-14.85 22.6-12.95 22.6-9.95L22.6-9.95Q22.6-6.4 21.25-4.13 19.9-1.85 17.53-0.75 15.15 0.35 12.05 0.35ZM37.7 0.35L37.7 0.35Q34.55 0.35 32.13-0.85 29.7-2.05 28.33-4.17 26.95-6.3 26.95-9.15L26.95-9.15 26.95-14.75Q26.95-17.25 28.25-19.35 29.55-21.45 31.73-22.7 33.9-23.95 36.5-23.95L36.5-23.95Q39-23.95 41.13-22.78 43.25-21.6 44.55-19.55 45.85-17.5 45.85-14.85L45.85-14.85Q45.85-12.9 45.2-12.08 44.55-11.25 43.58-11.05 42.6-10.85 41.5-10.85L41.5-10.85 30.2-10.85 30.2-9Q30.2-6 32.35-4.25 34.5-2.5 37.8-2.5L37.8-2.5Q39.8-2.5 40.9-3 42-3.5 42.63-4 43.25-4.5 43.8-4.5L43.8-4.5Q44.2-4.5 44.53-4.23 44.85-3.95 45.03-3.6 45.2-3.25 45.2-2.95L45.2-2.95Q45.2-2.4 44.3-1.6 43.4-0.8 41.7-0.23 40 0.35 37.7 0.35ZM30.2-15.15L30.2-13.25 40.2-13.25Q41.7-13.25 42.2-13.58 42.7-13.9 42.7-14.95L42.7-14.95Q42.7-16.55 41.93-18 41.15-19.45 39.73-20.35 38.3-21.25 36.45-21.25L36.45-21.25Q34.75-21.25 33.33-20.43 31.9-19.6 31.05-18.23 30.2-16.85 30.2-15.15L30.2-15.15ZM70.6 0.35L70.6 0.35Q67.45 0.35 65.03-0.85 62.6-2.05 61.23-4.17 59.85-6.3 59.85-9.15L59.85-9.15 59.85-14.75Q59.85-17.25 61.15-19.35 62.45-21.45 64.63-22.7 66.8-23.95 69.4-23.95L69.4-23.95Q71.9-23.95 74.03-22.78 76.15-21.6 77.45-19.55 78.75-17.5 78.75-14.85L78.75-14.85Q78.75-12.9 78.1-12.08 77.45-11.25 76.48-11.05 75.5-10.85 74.4-10.85L74.4-10.85 63.1-10.85 63.1-9Q63.1-6 65.25-4.25 67.4-2.5 70.7-2.5L70.7-2.5Q72.7-2.5 73.8-3 74.9-3.5 75.53-4 76.15-4.5 76.7-4.5L76.7-4.5Q77.1-4.5 77.43-4.23 77.75-3.95 77.93-3.6 78.1-3.25 78.1-2.95L78.1-2.95Q78.1-2.4 77.2-1.6 76.3-0.8 74.6-0.23 72.9 0.35 70.6 0.35ZM63.1-15.15L63.1-13.25 73.1-13.25Q74.6-13.25 75.1-13.58 75.6-13.9 75.6-14.95L75.6-14.95Q75.6-16.55 74.83-18 74.05-19.45 72.63-20.35 71.2-21.25 69.35-21.25L69.35-21.25Q67.65-21.25 66.23-20.43 64.8-19.6 63.95-18.23 63.1-16.85 63.1-15.15L63.1-15.15ZM105.25 0L95.8 0Q95.15 0 94.73-0.38 94.3-0.75 94.3-1.25L94.3-1.25 94.3-35.3Q94.3-35.9 94.78-36.23 95.25-36.55 95.8-36.55L95.8-36.55 104-36.55Q106.8-36.55 109.13-35.9 111.45-35.25 112.83-33.43 114.2-31.6 114.2-28.05L114.2-28.05Q114.2-24.9 113.03-22.78 111.85-20.65 109.95-19.8L109.95-19.8Q111.5-19.2 112.65-18.15 113.8-17.1 114.45-15.45 115.1-13.8 115.1-11.2L115.1-11.2 115.1-10.3Q115.1-6.5 113.8-4.25 112.5-2 110.25-1 108 0 105.25 0L105.25 0ZM97.6-18.4L97.6-3.05 104.8-3.05Q108.1-3.05 109.95-4.83 111.8-6.6 111.8-10.45L111.8-10.45 111.8-11.3Q111.8-15.2 109.95-16.8 108.1-18.4 104.8-18.4L104.8-18.4 97.6-18.4ZM97.6-33.5L97.6-21.25 104.1-21.25Q107.6-21.25 109.25-22.7 110.9-24.15 110.9-27.7L110.9-27.7Q110.9-30.05 110-31.3 109.1-32.55 107.55-33.02 106-33.5 103.9-33.5L103.9-33.5 97.6-33.5ZM129.1 0.35L129.1 0.35Q126.55 0.35 124.4-0.98 122.25-2.3 120.93-4.48 119.6-6.65 119.6-9.15L119.6-9.15 119.6-14.6Q119.6-17.1 120.9-19.23 122.2-21.35 124.35-22.65 126.5-23.95 129.1-23.95L129.1-23.95Q131.65-23.95 133.83-22.68 136-21.4 137.3-19.3 138.6-17.2 138.6-14.6L138.6-14.6 138.6-9.15Q138.6-6.7 137.3-4.5 136-2.3 133.83-0.98 131.65 0.35 129.1 0.35ZM129.1-2.65L129.1-2.65Q130.85-2.65 132.25-3.58 133.65-4.5 134.5-6 135.35-7.5 135.35-9.15L135.35-9.15 135.35-14.6Q135.35-16.2 134.53-17.65 133.7-19.1 132.28-20.03 130.85-20.95 129.1-20.95L129.1-20.95Q127.35-20.95 125.95-20.03 124.55-19.1 123.7-17.65 122.85-16.2 122.85-14.6L122.85-14.6 122.85-9.15Q122.85-7.5 123.7-6 124.55-4.5 125.98-3.58 127.4-2.65 129.1-2.65ZM145.55 0L145.55 0Q144.9 0 144.43-0.4 143.95-0.8 143.95-1.3L143.95-1.3 143.95-22.45Q143.95-23 144.43-23.33 144.9-23.65 145.55-23.65L145.55-23.65Q146.2-23.65 146.65-23.33 147.1-23 147.1-22.45L147.1-22.45 147.1-20.15Q147.9-21.6 149.6-22.78 151.3-23.95 153.8-23.95L153.8-23.95Q156.2-23.95 158.23-22.68 160.25-21.4 161.45-19.3 162.65-17.2 162.65-14.6L162.65-14.6 162.65-1.3Q162.65-0.65 162.15-0.33 161.65 0 161 0L161 0Q160.45 0 159.93-0.33 159.4-0.65 159.4-1.3L159.4-1.3 159.4-14.6Q159.4-16.2 158.55-17.65 157.7-19.1 156.3-20.03 154.9-20.95 153.2-20.95L153.2-20.95Q151.7-20.95 150.33-20.18 148.95-19.4 148.08-18 147.2-16.6 147.2-14.6L147.2-14.6 147.2-1.3Q147.2-0.8 146.73-0.4 146.25 0 145.55 0ZM180.25 0L180.25 0Q179.6 0 179.13-0.4 178.65-0.8 178.65-1.3L178.65-1.3 178.65-22.45Q178.65-23 179.13-23.33 179.6-23.65 180.25-23.65L180.25-23.65Q180.9-23.65 181.35-23.33 181.8-23 181.8-22.45L181.8-22.45 181.8-20.15Q182.6-21.6 184.3-22.78 186-23.95 188.5-23.95L188.5-23.95Q190.9-23.95 192.93-22.68 194.95-21.4 196.15-19.3 197.35-17.2 197.35-14.6L197.35-14.6 197.35-1.3Q197.35-0.65 196.85-0.33 196.35 0 195.7 0L195.7 0Q195.15 0 194.63-0.33 194.1-0.65 194.1-1.3L194.1-1.3 194.1-14.6Q194.1-16.2 193.25-17.65 192.4-19.1 191-20.03 189.6-20.95 187.9-20.95L187.9-20.95Q186.4-20.95 185.03-20.18 183.65-19.4 182.78-18 181.9-16.6 181.9-14.6L181.9-14.6 181.9-1.3Q181.9-0.8 181.43-0.4 180.95 0 180.25 0ZM208.6 0.35L208.6 0.35Q205.8 0.35 203.8-1.28 201.8-2.9 201.8-6.25L201.8-6.25Q201.8-9 203.28-10.48 204.75-11.95 207.38-12.53 210-13.1 213.45-13.1L213.45-13.1 216-13.1 216-14.3Q216-15.9 215.43-17.48 214.85-19.05 213.57-20.08 212.3-21.1 210.1-21.1L210.1-21.1Q208.45-21.1 207.4-20.75 206.35-20.4 205.75-20.03 205.15-19.65 204.75-19.65L204.75-19.65Q204.15-19.65 203.8-20.25 203.45-20.85 203.45-21.4L203.45-21.4Q203.45-22.05 204.47-22.63 205.5-23.2 207.07-23.58 208.65-23.95 210.2-23.95L210.2-23.95Q213.55-23.95 215.53-22.58 217.5-21.2 218.38-19 219.25-16.8 219.25-14.3L219.25-14.3 219.25-1.3Q219.25-0.75 218.82-0.38 218.4 0 217.65 0L217.65 0Q217.05 0 216.6-0.38 216.15-0.75 216.15-1.3L216.15-1.3 216.15-3.5Q214.85-2.05 213-0.85 211.15 0.35 208.6 0.35ZM209.4-2.4L209.4-2.4Q211.05-2.4 212.55-3.25 214.05-4.1 215.03-5.33 216-6.55 216-7.65L216-7.65 216-10.85 213.9-10.85Q211.65-10.85 209.63-10.58 207.6-10.3 206.32-9.4 205.05-8.5 205.05-6.55L205.05-6.55Q205.05-4.4 206.32-3.4 207.6-2.4 209.4-2.4ZM233.85 0.35L233.85 0.35Q231.3 0.35 229.15-0.98 227-2.3 225.68-4.48 224.35-6.65 224.35-9.15L224.35-9.15 224.35-14.6Q224.35-17.1 225.65-19.23 226.95-21.35 229.1-22.65 231.25-23.95 233.85-23.95L233.85-23.95Q236.4-23.95 238.58-22.68 240.75-21.4 242.05-19.3 243.35-17.2 243.35-14.6L243.35-14.6 243.35-9.15Q243.35-6.7 242.05-4.5 240.75-2.3 238.58-0.98 236.4 0.35 233.85 0.35ZM233.85-2.65L233.85-2.65Q235.6-2.65 237-3.58 238.4-4.5 239.25-6 240.1-7.5 240.1-9.15L240.1-9.15 240.1-14.6Q240.1-16.2 239.28-17.65 238.45-19.1 237.03-20.03 235.6-20.95 233.85-20.95L233.85-20.95Q232.1-20.95 230.7-20.03 229.3-19.1 228.45-17.65 227.6-16.2 227.6-14.6L227.6-14.6 227.6-9.15Q227.6-7.5 228.45-6 229.3-4.5 230.72-3.58 232.15-2.65 233.85-2.65ZM267.95 0L266.55 0Q262.7 0 260.65-1.75 258.6-3.5 258.6-7.35L258.6-7.35 258.6-33.7Q258.6-34.25 259.13-34.58 259.65-34.9 260.2-34.9L260.2-34.9Q260.85-34.9 261.35-34.58 261.85-34.25 261.85-33.7L261.85-33.7 261.85-23.65 268.35-23.65Q268.85-23.65 269.15-23.25 269.45-22.85 269.45-22.3L269.45-22.3Q269.45-21.75 269.15-21.35 268.85-20.95 268.35-20.95L268.35-20.95 261.85-20.95 261.85-7.35Q261.85-4.9 262.9-3.93 263.95-2.95 266.55-2.95L266.55-2.95 267.95-2.95Q268.65-2.95 269.03-2.53 269.4-2.1 269.4-1.5L269.4-1.5Q269.4-0.9 269.03-0.45 268.65 0 267.95 0L267.95 0ZM282.9 0.35L282.9 0.35Q279.75 0.35 277.33-0.85 274.9-2.05 273.53-4.17 272.15-6.3 272.15-9.15L272.15-9.15 272.15-14.75Q272.15-17.25 273.45-19.35 274.75-21.45 276.93-22.7 279.1-23.95 281.7-23.95L281.7-23.95Q284.2-23.95 286.33-22.78 288.45-21.6 289.75-19.55 291.05-17.5 291.05-14.85L291.05-14.85Q291.05-12.9 290.4-12.08 289.75-11.25 288.78-11.05 287.8-10.85 286.7-10.85L286.7-10.85 275.4-10.85 275.4-9Q275.4-6 277.55-4.25 279.7-2.5 283-2.5L283-2.5Q285-2.5 286.1-3 287.2-3.5 287.83-4 288.45-4.5 289-4.5L289-4.5Q289.4-4.5 289.73-4.23 290.05-3.95 290.23-3.6 290.4-3.25 290.4-2.95L290.4-2.95Q290.4-2.4 289.5-1.6 288.6-0.8 286.9-0.23 285.2 0.35 282.9 0.35ZM275.4-15.15L275.4-13.25 285.4-13.25Q286.9-13.25 287.4-13.58 287.9-13.9 287.9-14.95L287.9-14.95Q287.9-16.55 287.13-18 286.35-19.45 284.93-20.35 283.5-21.25 281.65-21.25L281.65-21.25Q279.95-21.25 278.53-20.43 277.1-19.6 276.25-18.23 275.4-16.85 275.4-15.15L275.4-15.15ZM297.5 0L297.5 0Q296.85 0 296.38-0.4 295.9-0.8 295.9-1.3L295.9-1.3 295.9-22.45Q295.9-23 296.38-23.33 296.85-23.65 297.5-23.65L297.5-23.65Q298.15-23.65 298.6-23.33 299.05-23 299.05-22.45L299.05-22.45 299.05-20.15Q299.9-21.6 301.57-22.78 303.25-23.95 305.7-23.95L305.7-23.95Q308.2-23.95 310.05-22.55 311.9-21.15 312.8-18.95L312.8-18.95Q314.1-21.5 316.18-22.73 318.25-23.95 320.4-23.95L320.4-23.95Q322.55-23.95 324.48-22.85 326.4-21.75 327.6-19.68 328.8-17.6 328.8-14.6L328.8-14.6 328.8-1.3Q328.8-0.8 328.32-0.4 327.85 0 327.15 0L327.15 0Q326.5 0 326.03-0.4 325.55-0.8 325.55-1.3L325.55-1.3 325.55-14.6Q325.55-16.7 324.7-18.1 323.85-19.5 322.55-20.23 321.25-20.95 319.85-20.95L319.85-20.95Q318.4-20.95 317.07-20.2 315.75-19.45 314.88-18.07 314-16.7 314-14.8L314-14.8 314-1.25Q314-0.6 313.48-0.3 312.95 0 312.35 0L312.35 0Q311.8 0 311.28-0.3 310.75-0.6 310.75-1.25L310.75-1.25 310.75-14.75Q310.75-16.55 309.98-17.95 309.2-19.35 307.9-20.15 306.6-20.95 305.05-20.95L305.05-20.95Q303.6-20.95 302.25-20.2 300.9-19.45 300.03-18.05 299.15-16.65 299.15-14.6L299.15-14.6 299.15-1.3Q299.15-0.8 298.68-0.4 298.2 0 297.5 0ZM346.45 0L346.45 0Q345.8 0 345.32-0.4 344.85-0.8 344.85-1.3L344.85-1.3 344.85-22.45Q344.85-23 345.32-23.33 345.8-23.65 346.45-23.65L346.45-23.65Q347.1-23.65 347.55-23.33 348-23 348-22.45L348-22.45 348-20.15Q348.85-21.6 350.52-22.78 352.2-23.95 354.65-23.95L354.65-23.95Q357.15-23.95 359-22.55 360.85-21.15 361.75-18.95L361.75-18.95Q363.05-21.5 365.13-22.73 367.2-23.95 369.35-23.95L369.35-23.95Q371.5-23.95 373.43-22.85 375.35-21.75 376.55-19.68 377.75-17.6 377.75-14.6L377.75-14.6 377.75-1.3Q377.75-0.8 377.27-0.4 376.8 0 376.1 0L376.1 0Q375.45 0 374.98-0.4 374.5-0.8 374.5-1.3L374.5-1.3 374.5-14.6Q374.5-16.7 373.65-18.1 372.8-19.5 371.5-20.23 370.2-20.95 368.8-20.95L368.8-20.95Q367.35-20.95 366.02-20.2 364.7-19.45 363.82-18.07 362.95-16.7 362.95-14.8L362.95-14.8 362.95-1.25Q362.95-0.6 362.43-0.3 361.9 0 361.3 0L361.3 0Q360.75 0 360.23-0.3 359.7-0.6 359.7-1.25L359.7-1.25 359.7-14.75Q359.7-16.55 358.93-17.95 358.15-19.35 356.85-20.15 355.55-20.95 354-20.95L354-20.95Q352.55-20.95 351.2-20.2 349.85-19.45 348.98-18.05 348.1-16.65 348.1-14.6L348.1-14.6 348.1-1.3Q348.1-0.8 347.63-0.4 347.15 0 346.45 0ZM393.7 0.35L393.7 0.35Q390.55 0.35 388.13-0.85 385.7-2.05 384.32-4.17 382.95-6.3 382.95-9.15L382.95-9.15 382.95-14.75Q382.95-17.25 384.25-19.35 385.55-21.45 387.72-22.7 389.9-23.95 392.5-23.95L392.5-23.95Q395-23.95 397.13-22.78 399.25-21.6 400.55-19.55 401.85-17.5 401.85-14.85L401.85-14.85Q401.85-12.9 401.2-12.08 400.55-11.25 399.57-11.05 398.6-10.85 397.5-10.85L397.5-10.85 386.2-10.85 386.2-9Q386.2-6 388.35-4.25 390.5-2.5 393.8-2.5L393.8-2.5Q395.8-2.5 396.9-3 398-3.5 398.63-4 399.25-4.5 399.8-4.5L399.8-4.5Q400.2-4.5 400.52-4.23 400.85-3.95 401.02-3.6 401.2-3.25 401.2-2.95L401.2-2.95Q401.2-2.4 400.3-1.6 399.4-0.8 397.7-0.23 396 0.35 393.7 0.35ZM386.2-15.15L386.2-13.25 396.2-13.25Q397.7-13.25 398.2-13.58 398.7-13.9 398.7-14.95L398.7-14.95Q398.7-16.55 397.93-18 397.15-19.45 395.72-20.35 394.3-21.25 392.45-21.25L392.45-21.25Q390.75-21.25 389.32-20.43 387.9-19.6 387.05-18.23 386.2-16.85 386.2-15.15L386.2-15.15ZM408.75 0L408.75 0Q408.1 0 407.62-0.4 407.15-0.8 407.15-1.3L407.15-1.3 407.15-36.95Q407.15-37.5 407.62-37.83 408.1-38.15 408.75-38.15L408.75-38.15Q409.45-38.15 409.92-37.83 410.4-37.5 410.4-36.95L410.4-36.95 410.4-1.3Q410.4-0.8 409.92-0.4 409.45 0 408.75 0ZM418.75 0L418.75 0Q418.1 0 417.62-0.4 417.15-0.8 417.15-1.3L417.15-1.3 417.15-36.95Q417.15-37.5 417.62-37.83 418.1-38.15 418.75-38.15L418.75-38.15Q419.45-38.15 419.92-37.83 420.4-37.5 420.4-36.95L420.4-36.95 420.4-20.15Q421.25-21.6 422.9-22.78 424.55-23.95 427-23.95L427-23.95Q429.4-23.95 431.42-22.68 433.45-21.4 434.65-19.3 435.85-17.2 435.85-14.6L435.85-14.6 435.85-1.3Q435.85-0.65 435.35-0.33 434.85 0 434.2 0L434.2 0Q433.65 0 433.12-0.33 432.6-0.65 432.6-1.3L432.6-1.3 432.6-14.6Q432.6-16.2 431.75-17.65 430.9-19.1 429.5-20.03 428.1-20.95 426.4-20.95L426.4-20.95Q424.9-20.95 423.52-20.18 422.15-19.4 421.27-18 420.4-16.6 420.4-14.6L420.4-14.6 420.4-1.3Q420.4-0.8 419.92-0.4 419.45 0 418.75 0ZM450.45 0.35L450.45 0.35Q447.9 0.35 445.75-0.98 443.6-2.3 442.27-4.48 440.95-6.65 440.95-9.15L440.95-9.15 440.95-14.6Q440.95-17.1 442.25-19.23 443.55-21.35 445.7-22.65 447.85-23.95 450.45-23.95L450.45-23.95Q453-23.95 455.17-22.68 457.35-21.4 458.65-19.3 459.95-17.2 459.95-14.6L459.95-14.6 459.95-9.15Q459.95-6.7 458.65-4.5 457.35-2.3 455.17-0.98 453 0.35 450.45 0.35ZM450.45-2.65L450.45-2.65Q452.2-2.65 453.6-3.58 455-4.5 455.85-6 456.7-7.5 456.7-9.15L456.7-9.15 456.7-14.6Q456.7-16.2 455.87-17.65 455.05-19.1 453.62-20.03 452.2-20.95 450.45-20.95L450.45-20.95Q448.7-20.95 447.3-20.03 445.9-19.1 445.05-17.65 444.2-16.2 444.2-14.6L444.2-14.6 444.2-9.15Q444.2-7.5 445.05-6 445.9-4.5 447.32-3.58 448.75-2.65 450.45-2.65ZM466.9 0L466.9 0Q466.25 0 465.77-0.4 465.3-0.8 465.3-1.3L465.3-1.3 465.3-22.45Q465.3-23 465.77-23.33 466.25-23.65 466.9-23.65L466.9-23.65Q467.55-23.65 468-23.33 468.45-23 468.45-22.45L468.45-22.45 468.45-20Q469-21 469.95-21.9 470.9-22.8 472.2-23.38 473.5-23.95 475.15-23.95L475.15-23.95 476.9-23.95Q477.45-23.95 477.82-23.53 478.2-23.1 478.2-22.45L478.2-22.45Q478.2-21.85 477.82-21.4 477.45-20.95 476.9-20.95L476.9-20.95 475.15-20.95Q473.5-20.95 471.97-20.08 470.45-19.2 469.5-17.57 468.55-15.95 468.55-13.65L468.55-13.65 468.55-1.3Q468.55-0.8 468.07-0.4 467.6 0 466.9 0Z" opacity="1" transform="matrix(1,0,0,1,0,0)" fill="#ff908b" class="undefined-text-1" data-fill-palette-color="secondary" id="text-1"></path></svg></g></svg></g></svg></g></svg></g></svg></g></svg></g></svg></g><path d="M175.941 75.314L175.941 15.228 392.685 15.228 392.685 231.972 175.941 231.972 175.941 171.886 180.669 171.886 180.669 227.243 387.956 227.243 387.956 19.957 180.669 19.957 180.669 75.314Z" fill="#ff908b" stroke="transparent" data-fill-palette-color="primary"></path></svg></g><defs></defs></svg><rect width="395.52" height="247.2" fill="none" stroke="none" visibility="hidden"></rect></g></svg></g></svg>